# xmcd
#
# Track frame offsets:
#	151
#	10000
#	25098
#	42546
#	62384
#	86429
#	103383
#	123832
#	140780
#	150634
#	162094
#	184802
#	203120
#	217889
#	241540
#	263668
#	287389
#	312455
#	329179
#
# Disc length: 4482 seconds
#
# Revision: 0
# Processed by: cddbd v1.4PL0 Copyright (c) Steve Scherf et al.
# Submitted via: audiograbber 1.81.03
#
DISCID=04118013
DTITLE=SYLVIO 09/2001 - COMPILATION RAGGAMUFFIN
DYEAR=1900
DGENRE=
TTITLE0=dj-và)
TTITLE1=Piste audio 02
TTITLE2=Piste audio 03
TTITLE3=Piste audio 04
TTITLE4=Piste audio 05
TTITLE5=Piste audio 06
TTITLE6=Piste audio 07
TTITLE7=Piste audio 08
TTITLE8=Piste audio 09
TTITLE9=Piste audio 10
TTITLE10=Piste audio 11
TTITLE11=Piste audio 12
TTITLE12=r'-
TTITLE13=Piste audio 14
TTITLE14=Piste audio 15
TTITLE15=Piste audio 16
TTITLE16=Piste audio 17
TTITLE17=Piste audio 18
TTITLE18=Piste audio 19
EXTD=
EXTT0=
EXTT1=
EXTT2=
EXTT3=
EXTT4=
EXTT5=
EXTT6=
EXTT7=
EXTT8=
EXTT9=
EXTT10=
EXTT11=
EXTT12='(
EXTT13=
EXTT14=
EXTT15=
EXTT16=
EXTT17=
EXTT18=
PLAYORDER=
